<svg width="1168" height="100" viewBox="0 0 1168 100" fill="none" xmlns="http://www.w3.org/2000/svg">
<circle cx="106" cy="50" r="47.5" fill="#3E9CDC" stroke="#286690" stroke-width="5"/>
<path d="M111.929 47.9286C111.929 52.8906 107.891 56.9286 102.929 56.9286C97.9665 56.9286 93.9286 52.8906 93.9286 47.9286C93.9286 42.9665 97.9665 38.9286 102.929 38.9286C107.891 38.9286 111.929 42.9665 111.929 47.9286ZM122.214 64.6428C122.214 63.9598 121.933 63.2969 121.471 62.8348L114.58 55.9442C116.208 53.5937 117.071 50.7812 117.071 47.9286C117.071 40.1138 110.743 33.7857 102.929 33.7857C95.1138 33.7857 88.7857 40.1138 88.7857 47.9286C88.7857 55.7433 95.1138 62.0714 102.929 62.0714C105.781 62.0714 108.594 61.2076 110.944 59.5803L117.835 66.4509C118.297 66.933 118.96 67.2143 119.643 67.2143C121.049 67.2143 122.214 66.0491 122.214 64.6428Z" fill="white"/>
<circle cx="345" cy="50" r="47.5" fill="#3E9CDC" stroke="#286690" stroke-width="5"/>
<path d="M354.786 57.9643C354.786 59.3705 353.621 60.5357 352.214 60.5357C350.808 60.5357 349.643 59.3705 349.643 57.9643C349.643 56.558 350.808 55.3928 352.214 55.3928C353.621 55.3928 354.786 56.558 354.786 57.9643ZM339.357 42.5357C339.357 43.942 338.192 45.1071 336.786 45.1071C335.379 45.1071 334.214 43.942 334.214 42.5357C334.214 41.1295 335.379 39.9643 336.786 39.9643C338.192 39.9643 339.357 41.1295 339.357 42.5357ZM359.929 57.9643C359.929 53.7053 356.473 50.25 352.214 50.25C347.955 50.25 344.5 53.7053 344.5 57.9643C344.5 62.2232 347.955 65.6786 352.214 65.6786C356.473 65.6786 359.929 62.2232 359.929 57.9643ZM358 36.1071C358 35.404 357.417 34.8214 356.714 34.8214H353.5C353.098 34.8214 352.717 35.0223 352.475 35.3437L331.261 63.6295C331.1 63.8504 331 64.1116 331 64.3928C331 65.096 331.583 65.6786 332.286 65.6786H335.5C335.902 65.6786 336.283 65.4777 336.525 65.1562L357.739 36.8705C357.9 36.6495 358 36.3884 358 36.1071ZM344.5 42.5357C344.5 38.2768 341.045 34.8214 336.786 34.8214C332.527 34.8214 329.071 38.2768 329.071 42.5357C329.071 46.7946 332.527 50.25 336.786 50.25C341.045 50.25 344.5 46.7946 344.5 42.5357Z" fill="white"/>
<circle cx="584" cy="50" r="47.5" fill="#3E9CDC" stroke="#286690" stroke-width="5"/>
<path d="M579.993 52.3724V51.0867C579.993 50.7251 580.274 50.4438 580.636 50.4438H594.779C595.141 50.4438 595.422 50.7251 595.422 51.0867V52.3724C595.422 52.734 595.141 53.0153 594.779 53.0153H580.636C580.274 53.0153 579.993 52.734 579.993 52.3724Z" fill="white"/>
<path d="M580.636 55.5867H594.779C595.141 55.5867 595.422 55.868 595.422 56.2296V57.5153C595.422 57.8769 595.141 58.1581 594.779 58.1581H580.636C580.274 58.1581 579.993 57.8769 579.993 57.5153V56.2296C579.993 55.868 580.274 55.5867 580.636 55.5867Z" fill="white"/>
<path d="M580.636 60.7296H594.779C595.141 60.7296 595.422 61.0108 595.422 61.3724V62.6581C595.422 63.0197 595.141 63.301 594.779 63.301H580.636C580.274 63.301 579.993 63.0197 579.993 62.6581V61.3724C579.993 61.0108 580.274 60.7296 580.636 60.7296Z" fill="white"/>
<path fill-rule="evenodd" clip-rule="evenodd" d="M572.279 44.3148C568.184 44.3148 564.864 40.995 564.864 36.8998C564.864 32.8046 568.184 29.4848 572.279 29.4848C575.723 29.4848 578.619 31.8328 579.452 35.0153H592.208C593.272 35.0153 594.759 35.638 595.502 36.3813L601.77 42.6492C602.513 43.3925 603.136 44.8791 603.136 45.9438V69.0867C603.136 70.1514 602.272 71.0153 601.208 71.0153H574.207C573.143 71.0153 572.279 70.1514 572.279 69.0867L572.279 44.3148ZM574.85 43.8568C577.473 42.8871 579.397 40.477 579.663 37.5867H590.279V45.9438C590.279 47.0086 591.143 47.8724 592.208 47.8724H600.565V68.4438H574.85V43.8568ZM593.674 38.1894C593.533 38.0488 593.192 37.868 592.85 37.7474V45.301H600.404C600.283 44.9595 600.103 44.618 599.962 44.4773L593.674 38.1894ZM573.279 37.8998H577.279V35.8998H573.279V31.8998H571.279V35.8998H567.279V37.8998H571.279V41.8998H573.279V37.8998Z" fill="white"/>
<circle cx="823" cy="50" r="47.5" fill="#3E9CDC" stroke="#286690" stroke-width="5"/>
<path d="M839.795 62.1071C839.795 62.4487 839.494 62.75 839.152 62.75H809.581C809.239 62.75 808.938 62.4487 808.938 62.1071V46.6786C809.36 47.1607 809.822 47.6027 810.324 48.0045C813.197 50.2143 816.09 52.4643 818.882 54.7946C820.389 56.0603 822.257 57.6071 824.346 57.6071H824.367H824.387C826.476 57.6071 828.344 56.0603 829.851 54.7946C832.643 52.4643 835.536 50.2143 838.409 48.0045C838.911 47.6027 839.373 47.1607 839.795 46.6786V62.1071ZM839.795 40.9933C839.795 42.7009 838.148 44.9308 836.842 45.9554C834.15 48.0647 831.458 50.1942 828.786 52.3237C827.721 53.1875 825.793 55.0357 824.387 55.0357H824.367H824.346C822.94 55.0357 821.012 53.1875 819.947 52.3237C817.275 50.1942 814.583 48.0647 811.891 45.9554C810.083 44.529 808.938 42.5402 808.938 40.25C808.938 39.9085 809.239 39.6071 809.581 39.6071H839.152C839.916 39.6071 839.795 40.4911 839.795 40.9933ZM842.367 40.25C842.367 38.4821 840.92 37.0357 839.152 37.0357H809.581C807.813 37.0357 806.367 38.4821 806.367 40.25V62.1071C806.367 63.875 807.813 65.3214 809.581 65.3214H839.152C840.92 65.3214 842.367 63.875 842.367 62.1071V40.25Z" fill="white"/>
<circle cx="1062" cy="50" r="47.5" fill="#3E9CDC" stroke="#286690" stroke-width="5"/>
<path d="M1057.73 54.5357V52.6071H1060.3V46.8214H1060.26C1059.94 47.3237 1059.64 47.5446 1059.16 47.9665L1057.61 46.3594L1060.58 43.6071H1062.87V52.6071H1065.44V54.5357H1057.73ZM1068.01 49.3929C1068.01 45.7366 1065.8 41.0357 1061.59 41.0357C1057.37 41.0357 1055.16 45.7366 1055.16 49.3929C1055.16 53.0491 1057.37 57.75 1061.59 57.75C1065.8 57.75 1068.01 53.0491 1068.01 49.3929ZM1078.3 54.5357C1075.47 54.5357 1073.16 56.846 1073.16 59.6786H1050.01C1050.01 56.846 1047.7 54.5357 1044.87 54.5357V44.25C1047.7 44.25 1050.01 41.9397 1050.01 39.1071H1073.16C1073.16 41.9397 1075.47 44.25 1078.3 44.25V54.5357ZM1080.87 37.8214C1080.87 37.1183 1080.29 36.5357 1079.59 36.5357H1043.59C1042.88 36.5357 1042.3 37.1183 1042.3 37.8214V60.9643C1042.3 61.6674 1042.88 62.25 1043.59 62.25H1079.59C1080.29 62.25 1080.87 61.6674 1080.87 60.9643V37.8214Z" fill="white"/>
<circle cx="249.011" cy="50" r="3" fill="#C4C4C4"/>
<circle cx="275.011" cy="50" r="3" fill="#C4C4C4"/>
<circle cx="223.011" cy="50" r="3" fill="#C4C4C4"/>
<circle cx="197.011" cy="50" r="3" fill="#C4C4C4"/>
<circle cx="171.011" cy="50" r="3" fill="#C4C4C4"/>
<circle cx="489" cy="50" r="3" fill="#C4C4C4"/>
<circle cx="515" cy="50" r="3" fill="#C4C4C4"/>
<circle cx="463" cy="50" r="3" fill="#C4C4C4"/>
<circle cx="437" cy="50" r="3" fill="#C4C4C4"/>
<circle cx="411" cy="50" r="3" fill="#C4C4C4"/>
<circle cx="729" cy="50" r="3" fill="#C4C4C4"/>
<circle cx="755" cy="50" r="3" fill="#C4C4C4"/>
<circle cx="703" cy="50" r="3" fill="#C4C4C4"/>
<circle cx="677" cy="50" r="3" fill="#C4C4C4"/>
<circle cx="651" cy="50" r="3" fill="#C4C4C4"/>
<circle cx="968.972" cy="50" r="3" fill="#C4C4C4"/>
<circle cx="994.972" cy="50" r="3" fill="#C4C4C4"/>
<circle cx="942.972" cy="50" r="3" fill="#C4C4C4"/>
<circle cx="916.972" cy="50" r="3" fill="#C4C4C4"/>
<circle cx="890.972" cy="50" r="3" fill="#C4C4C4"/>
</svg>
